<mxfile host="app.diagrams.net" modified="2021-05-14T03:50:50.129Z" agent="5.0 (Macintosh; Intel Mac OS X 10_15_7) AppleWebKit/537.36 (KHTML, like Gecko) Chrome/90.0.4430.93 Safari/537.36" etag="mUuqtq9al9v71JxXQT_a" version="14.6.13" type="github">
  <diagram id="ngQ7Vl1uQFzhNSxYuLYg" name="Page-1">
    <mxGraphModel dx="2066" dy="1076" grid="1" gridSize="10" guides="1" tooltips="1" connect="1" arrows="1" fold="1" page="1" pageScale="1" pageWidth="700" pageHeight="1000" math="0" shadow="0">
      <root>
        <mxCell id="0" />
        <mxCell id="1" parent="0" />
        <mxCell id="qRCUkhhy2Qlw3t5zqcsH-18" style="edgeStyle=none;rounded=0;orthogonalLoop=1;jettySize=auto;html=1;exitX=0.5;exitY=1;exitDx=0;exitDy=0;entryX=0.5;entryY=0;entryDx=0;entryDy=0;" parent="1" source="qRCUkhhy2Qlw3t5zqcsH-2" target="qRCUkhhy2Qlw3t5zqcsH-13" edge="1">
          <mxGeometry relative="1" as="geometry" />
        </mxCell>
        <mxCell id="qRCUkhhy2Qlw3t5zqcsH-2" value="Web" style="rounded=0;whiteSpace=wrap;html=1;" parent="1" vertex="1">
          <mxGeometry x="120" y="220" width="120" height="60" as="geometry" />
        </mxCell>
        <mxCell id="qRCUkhhy2Qlw3t5zqcsH-14" style="edgeStyle=none;rounded=0;orthogonalLoop=1;jettySize=auto;html=1;exitX=1;exitY=0.5;exitDx=0;exitDy=0;entryX=0;entryY=0.5;entryDx=0;entryDy=0;" parent="1" source="qRCUkhhy2Qlw3t5zqcsH-3" target="qRCUkhhy2Qlw3t5zqcsH-13" edge="1">
          <mxGeometry relative="1" as="geometry" />
        </mxCell>
        <mxCell id="qRCUkhhy2Qlw3t5zqcsH-3" value="Messaging" style="rounded=0;whiteSpace=wrap;html=1;" parent="1" vertex="1">
          <mxGeometry y="330" width="120" height="60" as="geometry" />
        </mxCell>
        <mxCell id="qRCUkhhy2Qlw3t5zqcsH-19" style="edgeStyle=none;rounded=0;orthogonalLoop=1;jettySize=auto;html=1;exitX=0.5;exitY=0;exitDx=0;exitDy=0;entryX=0.5;entryY=1;entryDx=0;entryDy=0;" parent="1" source="qRCUkhhy2Qlw3t5zqcsH-4" target="qRCUkhhy2Qlw3t5zqcsH-13" edge="1">
          <mxGeometry relative="1" as="geometry" />
        </mxCell>
        <mxCell id="qRCUkhhy2Qlw3t5zqcsH-4" value="Rpc" style="rounded=0;whiteSpace=wrap;html=1;" parent="1" vertex="1">
          <mxGeometry x="120" y="440" width="120" height="60" as="geometry" />
        </mxCell>
        <mxCell id="qRCUkhhy2Qlw3t5zqcsH-5" value="&lt;span&gt;Db&lt;/span&gt;" style="rounded=0;whiteSpace=wrap;html=1;" parent="1" vertex="1">
          <mxGeometry x="440" y="220" width="120" height="60" as="geometry" />
        </mxCell>
        <mxCell id="qRCUkhhy2Qlw3t5zqcsH-6" value="&lt;span&gt;Messaging&lt;/span&gt;" style="rounded=0;whiteSpace=wrap;html=1;" parent="1" vertex="1">
          <mxGeometry x="560" y="330" width="120" height="60" as="geometry" />
        </mxCell>
        <mxCell id="qRCUkhhy2Qlw3t5zqcsH-7" value="External" style="rounded=0;whiteSpace=wrap;html=1;" parent="1" vertex="1">
          <mxGeometry x="440" y="440" width="120" height="60" as="geometry" />
        </mxCell>
        <mxCell id="qRCUkhhy2Qlw3t5zqcsH-15" style="edgeStyle=none;rounded=0;orthogonalLoop=1;jettySize=auto;html=1;exitX=0.5;exitY=0;exitDx=0;exitDy=0;entryX=0.5;entryY=1;entryDx=0;entryDy=0;" parent="1" source="qRCUkhhy2Qlw3t5zqcsH-8" target="qRCUkhhy2Qlw3t5zqcsH-5" edge="1">
          <mxGeometry relative="1" as="geometry" />
        </mxCell>
        <mxCell id="qRCUkhhy2Qlw3t5zqcsH-16" style="edgeStyle=none;rounded=0;orthogonalLoop=1;jettySize=auto;html=1;exitX=1;exitY=0.5;exitDx=0;exitDy=0;" parent="1" source="qRCUkhhy2Qlw3t5zqcsH-8" target="qRCUkhhy2Qlw3t5zqcsH-6" edge="1">
          <mxGeometry relative="1" as="geometry" />
        </mxCell>
        <mxCell id="qRCUkhhy2Qlw3t5zqcsH-17" style="edgeStyle=none;rounded=0;orthogonalLoop=1;jettySize=auto;html=1;exitX=0.5;exitY=1;exitDx=0;exitDy=0;entryX=0.5;entryY=0;entryDx=0;entryDy=0;" parent="1" source="qRCUkhhy2Qlw3t5zqcsH-8" target="qRCUkhhy2Qlw3t5zqcsH-7" edge="1">
          <mxGeometry relative="1" as="geometry" />
        </mxCell>
        <mxCell id="qRCUkhhy2Qlw3t5zqcsH-8" value="infrastructure" style="rounded=0;whiteSpace=wrap;html=1;" parent="1" vertex="1">
          <mxGeometry x="440" y="330" width="90" height="60" as="geometry" />
        </mxCell>
        <mxCell id="Vt8bDE5-zlE_h-U58SHd-2" style="edgeStyle=orthogonalEdgeStyle;rounded=0;orthogonalLoop=1;jettySize=auto;html=1;" edge="1" parent="1" source="qRCUkhhy2Qlw3t5zqcsH-13" target="qRCUkhhy2Qlw3t5zqcsH-20">
          <mxGeometry relative="1" as="geometry" />
        </mxCell>
        <mxCell id="qRCUkhhy2Qlw3t5zqcsH-13" value="application" style="rounded=0;whiteSpace=wrap;html=1;" parent="1" vertex="1">
          <mxGeometry x="150" y="330" width="90" height="60" as="geometry" />
        </mxCell>
        <mxCell id="Vt8bDE5-zlE_h-U58SHd-1" style="edgeStyle=orthogonalEdgeStyle;rounded=0;orthogonalLoop=1;jettySize=auto;html=1;" edge="1" parent="1" source="qRCUkhhy2Qlw3t5zqcsH-20" target="qRCUkhhy2Qlw3t5zqcsH-8">
          <mxGeometry relative="1" as="geometry" />
        </mxCell>
        <mxCell id="qRCUkhhy2Qlw3t5zqcsH-20" value="Domain" style="ellipse;whiteSpace=wrap;html=1;aspect=fixed;" parent="1" vertex="1">
          <mxGeometry x="270" y="290" width="140" height="140" as="geometry" />
        </mxCell>
      </root>
    </mxGraphModel>
  </diagram>
</mxfile>
